<svg width="136" height="136" viewBox="0 0 136 136" fill="none" xmlns="http://www.w3.org/2000/svg">
<rect x="3" y="3" width="130" height="130" rx="65" fill="white" stroke="black" stroke-width="6"/>
<path d="M29.4668 47.2725V87.6736C29.4668 88.1401 29.8422 88.5076 30.2848 88.4777C39.4013 87.8638 49.1524 84.4969 56.0377 77.8528V69.8906H46.0062C44.7688 69.8906 43.7044 68.8896 43.6474 67.5893C43.5866 66.2021 44.6377 65.0592 45.9416 65.0592H56.0378V57.0954C49.1911 50.4864 39.4399 47.0804 30.2847 46.4685C29.8421 46.4389 29.4668 46.8062 29.4668 47.2725ZM81.0959 57.097V65.0592H91.1266C92.3628 65.0592 93.4269 66.0578 93.486 67.3565C93.5491 68.7437 92.4971 69.8906 91.1921 69.8906H81.0959V77.8544C87.9427 84.4635 97.694 87.8694 106.849 88.4814C107.292 88.5109 107.667 88.1437 107.667 87.6773V47.2762C107.667 46.8097 107.291 46.4424 106.849 46.4722C97.7087 47.0873 87.9694 50.4613 81.0959 57.097ZM60.631 58.1518V76.798H76.5026V58.1518H60.631Z" fill="black"/>
</svg>
