<svg width="700" height="156" viewBox="0 0 700 156" fill="none" xmlns="http://www.w3.org/2000/svg">
<g filter="url(#filter0_d_0_1)">
<rect x="10" y="4" width="136" height="136" rx="68" fill="white"/>
<rect x="13" y="7" width="130" height="130" rx="65" stroke="black" stroke-width="6"/>
</g>
<path d="M39.4668 51.2724V91.6735C39.4668 92.14 39.8422 92.5074 40.2848 92.4776C49.4013 91.8637 59.1524 88.4968 66.0377 81.8527V73.8905H56.0062C54.7688 73.8905 53.7044 72.8895 53.6474 71.5892C53.5866 70.202 54.6377 69.0591 55.9416 69.0591H66.0378V61.0953C59.1911 54.4862 49.4399 51.0803 40.2847 50.4683C39.8421 50.4388 39.4668 50.806 39.4668 51.2724ZM91.0959 61.0969V69.0591H101.127C102.363 69.0591 103.427 70.0577 103.486 71.3564C103.549 72.7436 102.497 73.8905 101.192 73.8905H91.0959V81.8543C97.9427 88.4634 107.694 91.8693 116.849 92.4812C117.292 92.5108 117.667 92.1436 117.667 91.6772V51.2761C117.667 50.8096 117.291 50.4423 116.849 50.472C107.709 51.0872 97.9694 54.4612 91.0959 61.0969ZM70.631 62.1517V80.7979H86.5026V62.1517H70.631Z" fill="black"/>
<path d="M209.47 104.85C205.333 104.85 201.537 104.113 198.08 102.64C194.623 101.167 191.62 99.07 189.07 96.35C186.52 93.5733 184.537 90.315 183.12 86.575C181.76 82.835 181.08 78.7267 181.08 74.25C181.08 70 181.817 66.0617 183.29 62.435C184.82 58.7517 186.917 55.5217 189.58 52.745C192.243 49.9683 195.332 47.815 198.845 46.285C202.358 44.755 206.155 43.99 210.235 43.99C213.125 43.99 215.93 44.4433 218.65 45.35C221.427 46.2 223.92 47.4183 226.13 49.005C228.397 50.535 230.238 52.2917 231.655 54.275L225.535 60.65C223.892 59.0067 222.22 57.6467 220.52 56.57C218.877 55.4367 217.177 54.5867 215.42 54.02C213.72 53.4533 211.992 53.17 210.235 53.17C207.458 53.17 204.852 53.7083 202.415 54.785C200.035 55.805 197.938 57.25 196.125 59.12C194.368 60.99 192.98 63.2283 191.96 65.835C190.94 68.385 190.43 71.19 190.43 74.25C190.43 77.48 190.912 80.4267 191.875 83.09C192.895 85.6967 194.312 87.935 196.125 89.805C197.938 91.675 200.092 93.12 202.585 94.14C205.135 95.1033 207.94 95.585 211 95.585C212.87 95.585 214.712 95.33 216.525 94.82C218.338 94.31 220.038 93.5733 221.625 92.61C223.212 91.6467 224.657 90.5133 225.96 89.21L230.55 96.69C229.247 98.22 227.462 99.6083 225.195 100.855C222.985 102.102 220.492 103.093 217.715 103.83C214.995 104.51 212.247 104.85 209.47 104.85ZM260.87 104.85C256.507 104.85 252.597 103.858 249.14 101.875C245.74 99.835 243.049 97.0867 241.065 93.63C239.082 90.1167 238.09 86.1217 238.09 81.645C238.09 77.1683 239.082 73.2017 241.065 69.745C243.049 66.2317 245.74 63.4833 249.14 61.5C252.597 59.46 256.507 58.44 260.87 58.44C265.177 58.44 269.03 59.46 272.43 61.5C275.887 63.4833 278.607 66.2317 280.59 69.745C282.574 73.2017 283.565 77.1683 283.565 81.645C283.565 86.1217 282.574 90.1167 280.59 93.63C278.607 97.0867 275.887 99.835 272.43 101.875C269.03 103.858 265.177 104.85 260.87 104.85ZM260.87 96.86C263.534 96.86 265.914 96.2083 268.01 94.905C270.107 93.545 271.75 91.7317 272.94 89.465C274.13 87.1417 274.697 84.535 274.64 81.645C274.697 78.6983 274.13 76.0917 272.94 73.825C271.75 71.5017 270.107 69.6883 268.01 68.385C265.914 67.0817 263.534 66.43 260.87 66.43C258.207 66.43 255.799 67.11 253.645 68.47C251.549 69.7733 249.905 71.5867 248.715 73.91C247.525 76.1767 246.959 78.755 247.015 81.645C246.959 84.535 247.525 87.1417 248.715 89.465C249.905 91.7317 251.549 93.545 253.645 94.905C255.799 96.2083 258.207 96.86 260.87 96.86ZM293.105 104V59.375H301.86V68.555L300.33 69.575C300.897 67.5917 302.002 65.7783 303.645 64.135C305.289 62.435 307.244 61.075 309.51 60.055C311.777 58.9783 314.1 58.44 316.48 58.44C319.88 58.44 322.714 59.12 324.98 60.48C327.247 61.7833 328.947 63.795 330.08 66.515C331.214 69.235 331.78 72.6633 331.78 76.8V104H323.025V77.395C323.025 74.845 322.685 72.7483 322.005 71.105C321.325 69.405 320.277 68.1867 318.86 67.45C317.444 66.6567 315.687 66.3167 313.59 66.43C311.89 66.43 310.332 66.7133 308.915 67.28C307.499 67.79 306.252 68.5267 305.175 69.49C304.155 70.4533 303.334 71.5867 302.71 72.89C302.144 74.1367 301.86 75.4967 301.86 76.97V104H297.525C296.789 104 296.052 104 295.315 104C294.579 104 293.842 104 293.105 104ZM348.502 104V54.36C348.502 51.81 349.069 49.5433 350.202 47.56C351.335 45.5767 352.894 44.0183 354.877 42.885C356.86 41.7517 359.155 41.185 361.762 41.185C363.575 41.185 365.275 41.525 366.862 42.205C368.449 42.885 369.724 43.7917 370.687 44.925L367.712 51.64C366.975 50.96 366.154 50.4217 365.247 50.025C364.397 49.5717 363.575 49.345 362.782 49.345C361.592 49.345 360.572 49.5433 359.722 49.94C358.929 50.28 358.334 50.8467 357.937 51.64C357.54 52.3767 357.342 53.2833 357.342 54.36V104H352.922C352.185 104 351.449 104 350.712 104C349.975 104 349.239 104 348.502 104ZM341.362 68.215V60.14H367.882V68.215H341.362ZM378.507 104V59.375H387.262V104H378.507ZM382.757 49.515C380.887 49.515 379.442 49.0333 378.422 48.07C377.402 47.1067 376.892 45.7467 376.892 43.99C376.892 42.3467 377.402 41.015 378.422 39.995C379.499 38.975 380.944 38.465 382.757 38.465C384.627 38.465 386.072 38.9467 387.092 39.91C388.112 40.8733 388.622 42.2333 388.622 43.99C388.622 45.6333 388.084 46.965 387.007 47.985C385.987 49.005 384.57 49.515 382.757 49.515ZM419.298 104.85C415.218 104.85 411.563 103.858 408.333 101.875C405.16 99.835 402.638 97.0867 400.768 93.63C398.898 90.1167 397.963 86.1217 397.963 81.645C397.963 77.1683 398.87 73.2017 400.683 69.745C402.553 66.2317 405.075 63.4833 408.248 61.5C411.422 59.46 415.02 58.44 419.043 58.44C421.253 58.44 423.378 58.8083 425.418 59.545C427.515 60.225 429.385 61.1883 431.028 62.435C432.672 63.625 433.947 64.9567 434.853 66.43C435.817 67.8467 436.298 69.2917 436.298 70.765L433.748 70.935V41.1H442.503V104H433.748V93.375H435.448C435.448 94.735 434.995 96.095 434.088 97.455C433.182 98.7583 431.963 99.9767 430.433 101.11C428.96 102.243 427.232 103.15 425.248 103.83C423.322 104.51 421.338 104.85 419.298 104.85ZM420.488 97.285C423.152 97.285 425.503 96.605 427.543 95.245C429.583 93.885 431.17 92.0433 432.303 89.72C433.493 87.34 434.088 84.6483 434.088 81.645C434.088 78.6417 433.493 75.9783 432.303 73.655C431.17 71.275 429.583 69.405 427.543 68.045C425.503 66.685 423.152 66.005 420.488 66.005C417.825 66.005 415.473 66.685 413.433 68.045C411.393 69.405 409.778 71.275 408.588 73.655C407.455 75.9783 406.888 78.6417 406.888 81.645C406.888 84.6483 407.455 87.34 408.588 89.72C409.778 92.0433 411.393 93.885 413.433 95.245C415.473 96.605 417.825 97.285 420.488 97.285ZM475.381 104.85C470.791 104.85 466.711 103.887 463.141 101.96C459.627 99.9767 456.851 97.285 454.811 93.885C452.827 90.485 451.836 86.575 451.836 82.155C451.836 78.6417 452.402 75.44 453.536 72.55C454.669 69.66 456.227 67.1667 458.211 65.07C460.251 62.9167 462.659 61.2733 465.436 60.14C468.269 58.95 471.329 58.355 474.616 58.355C477.506 58.355 480.197 58.9217 482.691 60.055C485.184 61.1317 487.337 62.6333 489.151 64.56C491.021 66.4867 492.437 68.7817 493.401 71.445C494.421 74.0517 494.902 76.9133 494.846 80.03L494.761 83.77H458.296L456.341 76.8H487.196L485.921 78.245V76.205C485.751 74.335 485.127 72.6633 484.051 71.19C482.974 69.7167 481.614 68.555 479.971 67.705C478.327 66.855 476.542 66.43 474.616 66.43C471.556 66.43 468.977 67.025 466.881 68.215C464.784 69.3483 463.197 71.0483 462.121 73.315C461.044 75.525 460.506 78.2733 460.506 81.56C460.506 84.6767 461.157 87.3967 462.461 89.72C463.764 91.9867 465.606 93.7433 467.986 94.99C470.366 96.2367 473.114 96.86 476.231 96.86C478.441 96.86 480.481 96.4917 482.351 95.755C484.277 95.0183 486.346 93.6867 488.556 91.76L492.976 97.965C491.616 99.325 489.944 100.515 487.961 101.535C486.034 102.555 483.966 103.377 481.756 104C479.602 104.567 477.477 104.85 475.381 104.85ZM504.36 104V59.375H513.115V68.555L511.585 69.575C512.152 67.5917 513.257 65.7783 514.9 64.135C516.544 62.435 518.499 61.075 520.765 60.055C523.032 58.9783 525.355 58.44 527.735 58.44C531.135 58.44 533.969 59.12 536.235 60.48C538.502 61.7833 540.202 63.795 541.335 66.515C542.469 69.235 543.035 72.6633 543.035 76.8V104H534.28V77.395C534.28 74.845 533.94 72.7483 533.26 71.105C532.58 69.405 531.532 68.1867 530.115 67.45C528.699 66.6567 526.942 66.3167 524.845 66.43C523.145 66.43 521.587 66.7133 520.17 67.28C518.754 67.79 517.507 68.5267 516.43 69.49C515.41 70.4533 514.589 71.5867 513.965 72.89C513.399 74.1367 513.115 75.4967 513.115 76.97V104H508.78C508.044 104 507.307 104 506.57 104C505.834 104 505.097 104 504.36 104ZM560.437 104V47.985H569.192V104H560.437ZM551.172 67.875V59.375H579.562V67.875H551.172ZM607.362 104L630.397 44.5H639.747L662.612 104H652.837L639.237 68.13C639.067 67.7333 638.727 66.77 638.217 65.24C637.764 63.71 637.226 62.01 636.602 60.14C635.979 58.27 635.412 56.57 634.902 55.04C634.392 53.4533 634.052 52.4333 633.882 51.98L635.837 51.895C635.497 52.8583 635.072 54.0767 634.562 55.55C634.109 57.0233 633.599 58.5817 633.032 60.225C632.522 61.8683 632.012 63.4267 631.502 64.9C630.992 66.3167 630.567 67.5067 630.227 68.47L616.712 104H607.362ZM617.562 89.21L620.962 80.37H647.992L651.902 89.21H617.562ZM670.874 104V95.5H680.479V53H670.874V44.5H699.264V53H689.659V95.5H699.264V104H670.874Z" fill="black"/>
<defs>
<filter id="filter0_d_0_1" x="0" y="0" width="156" height="156" filterUnits="userSpaceOnUse" color-interpolation-filters="sRGB">
<feFlood flood-opacity="0" result="BackgroundImageFix"/>
<feColorMatrix in="SourceAlpha" type="matrix" values="0 0 0 0 0 0 0 0 0 0 0 0 0 0 0 0 0 0 127 0" result="hardAlpha"/>
<feOffset dy="6"/>
<feGaussianBlur stdDeviation="5"/>
<feComposite in2="hardAlpha" operator="out"/>
<feColorMatrix type="matrix" values="0 0 0 0 0.261343 0 0 0 0 0.261343 0 0 0 0 0.261343 0 0 0 1 0"/>
<feBlend mode="normal" in2="BackgroundImageFix" result="effect1_dropShadow_0_1"/>
<feBlend mode="normal" in="SourceGraphic" in2="effect1_dropShadow_0_1" result="shape"/>
</filter>
</defs>
</svg>
