<svg width="193" height="193" viewBox="0 0 193 193" fill="none" xmlns="http://www.w3.org/2000/svg">
<rect x="4.5" y="4.5" width="184" height="184" rx="92" fill="#10002A" stroke="#6E00FF" stroke-width="9"/>
<path d="M50.7031 74.4507V117.029C50.7031 117.521 51.1428 117.908 51.6613 117.877C62.339 117.23 73.7603 113.681 81.8248 106.679V98.2878H70.0753C68.6259 98.2878 67.3792 97.2328 67.3124 95.8624C67.2412 94.4005 68.4724 93.196 69.9996 93.196H81.825V84.803C73.8055 77.8378 62.3843 74.2482 51.6611 73.6033C51.1427 73.5722 50.7031 73.9592 50.7031 74.4507ZM111.175 84.8047V93.196H122.923C124.371 93.196 125.618 94.2484 125.687 95.6171C125.761 97.0791 124.529 98.2878 123 98.2878H111.175V106.681C119.194 113.646 130.616 117.236 141.339 117.88C141.857 117.912 142.296 117.525 142.296 117.033V74.4546C142.296 73.9629 141.857 73.5759 141.338 73.6072C130.633 74.2555 119.225 77.8113 111.175 84.8047ZM87.2048 85.9164V105.567H105.795V85.9164H87.2048Z" fill="white"/>
</svg>
