<svg width="967" height="265" viewBox="0 0 967 265" fill="none" xmlns="http://www.w3.org/2000/svg">
<path d="M333.02 173.1C327.667 173.1 322.753 172.147 318.28 170.24C313.807 168.333 309.92 165.62 306.62 162.1C303.32 158.507 300.753 154.29 298.92 149.45C297.16 144.61 296.28 139.293 296.28 133.5C296.28 128 297.233 122.903 299.14 118.21C301.12 113.443 303.833 109.263 307.28 105.67C310.727 102.077 314.723 99.29 319.27 97.31C323.817 95.33 328.73 94.34 334.01 94.34C337.75 94.34 341.38 94.9267 344.9 96.1C348.493 97.2 351.72 98.7767 354.58 100.83C357.513 102.81 359.897 105.083 361.73 107.65L353.81 115.9C351.683 113.773 349.52 112.013 347.32 110.62C345.193 109.153 342.993 108.053 340.72 107.32C338.52 106.587 336.283 106.22 334.01 106.22C330.417 106.22 327.043 106.917 323.89 108.31C320.81 109.63 318.097 111.5 315.75 113.92C313.477 116.34 311.68 119.237 310.36 122.61C309.04 125.91 308.38 129.54 308.38 133.5C308.38 137.68 309.003 141.493 310.25 144.94C311.57 148.313 313.403 151.21 315.75 153.63C318.097 156.05 320.883 157.92 324.11 159.24C327.41 160.487 331.04 161.11 335 161.11C337.42 161.11 339.803 160.78 342.15 160.12C344.497 159.46 346.697 158.507 348.75 157.26C350.803 156.013 352.673 154.547 354.36 152.86L360.3 162.54C358.613 164.52 356.303 166.317 353.37 167.93C350.51 169.543 347.283 170.827 343.69 171.78C340.17 172.66 336.613 173.1 333.02 173.1ZM399.538 173.1C393.892 173.1 388.832 171.817 384.358 169.25C379.958 166.61 376.475 163.053 373.908 158.58C371.342 154.033 370.058 148.863 370.058 143.07C370.058 137.277 371.342 132.143 373.908 127.67C376.475 123.123 379.958 119.567 384.358 117C388.832 114.36 393.892 113.04 399.538 113.04C405.112 113.04 410.098 114.36 414.498 117C418.972 119.567 422.492 123.123 425.058 127.67C427.625 132.143 428.908 137.277 428.908 143.07C428.908 148.863 427.625 154.033 425.058 158.58C422.492 163.053 418.972 166.61 414.498 169.25C410.098 171.817 405.112 173.1 399.538 173.1ZM399.538 162.76C402.985 162.76 406.065 161.917 408.778 160.23C411.492 158.47 413.618 156.123 415.158 153.19C416.698 150.183 417.432 146.81 417.358 143.07C417.432 139.257 416.698 135.883 415.158 132.95C413.618 129.943 411.492 127.597 408.778 125.91C406.065 124.223 402.985 123.38 399.538 123.38C396.092 123.38 392.975 124.26 390.188 126.02C387.475 127.707 385.348 130.053 383.808 133.06C382.268 135.993 381.535 139.33 381.608 143.07C381.535 146.81 382.268 150.183 383.808 153.19C385.348 156.123 387.475 158.47 390.188 160.23C392.975 161.917 396.092 162.76 399.538 162.76ZM441.254 172V114.25H452.584V126.13L450.604 127.45C451.337 124.883 452.767 122.537 454.894 120.41C457.021 118.21 459.551 116.45 462.484 115.13C465.417 113.737 468.424 113.04 471.504 113.04C475.904 113.04 479.571 113.92 482.504 115.68C485.437 117.367 487.637 119.97 489.104 123.49C490.571 127.01 491.304 131.447 491.304 136.8V172H479.974V137.57C479.974 134.27 479.534 131.557 478.654 129.43C477.774 127.23 476.417 125.653 474.584 124.7C472.751 123.673 470.477 123.233 467.764 123.38C465.564 123.38 463.547 123.747 461.714 124.48C459.881 125.14 458.267 126.093 456.874 127.34C455.554 128.587 454.491 130.053 453.684 131.74C452.951 133.353 452.584 135.113 452.584 137.02V172H446.974C446.021 172 445.067 172 444.114 172C443.161 172 442.207 172 441.254 172ZM512.944 172V107.76C512.944 104.46 513.677 101.527 515.144 98.96C516.611 96.3933 518.627 94.3767 521.194 92.91C523.761 91.4433 526.731 90.71 530.104 90.71C532.451 90.71 534.651 91.15 536.704 92.03C538.757 92.91 540.407 94.0833 541.654 95.55L537.804 104.24C536.851 103.36 535.787 102.663 534.614 102.15C533.514 101.563 532.451 101.27 531.424 101.27C529.884 101.27 528.564 101.527 527.464 102.04C526.437 102.48 525.667 103.213 525.154 104.24C524.641 105.193 524.384 106.367 524.384 107.76V172H518.664C517.711 172 516.757 172 515.804 172C514.851 172 513.897 172 512.944 172ZM503.704 125.69V115.24H538.024V125.69H503.704ZM551.774 172V114.25H563.104V172H551.774ZM557.274 101.49C554.854 101.49 552.984 100.867 551.664 99.62C550.344 98.3733 549.684 96.6133 549.684 94.34C549.684 92.2133 550.344 90.49 551.664 89.17C553.057 87.85 554.927 87.19 557.274 87.19C559.694 87.19 561.564 87.8133 562.884 89.06C564.204 90.3067 564.864 92.0667 564.864 94.34C564.864 96.4667 564.167 98.19 562.774 99.51C561.454 100.83 559.621 101.49 557.274 101.49ZM604.563 173.1C599.283 173.1 594.553 171.817 590.373 169.25C586.266 166.61 583.003 163.053 580.583 158.58C578.163 154.033 576.953 148.863 576.953 143.07C576.953 137.277 578.126 132.143 580.473 127.67C582.893 123.123 586.156 119.567 590.263 117C594.369 114.36 599.026 113.04 604.233 113.04C607.093 113.04 609.843 113.517 612.483 114.47C615.196 115.35 617.616 116.597 619.743 118.21C621.869 119.75 623.519 121.473 624.693 123.38C625.939 125.213 626.563 127.083 626.563 128.99L623.263 129.21V90.6H634.593V172H623.263V158.25H625.463C625.463 160.01 624.876 161.77 623.703 163.53C622.529 165.217 620.953 166.793 618.973 168.26C617.066 169.727 614.829 170.9 612.263 171.78C609.769 172.66 607.203 173.1 604.563 173.1ZM606.103 163.31C609.549 163.31 612.593 162.43 615.233 160.67C617.873 158.91 619.926 156.527 621.393 153.52C622.933 150.44 623.703 146.957 623.703 143.07C623.703 139.183 622.933 135.737 621.393 132.73C619.926 129.65 617.873 127.23 615.233 125.47C612.593 123.71 609.549 122.83 606.103 122.83C602.656 122.83 599.613 123.71 596.973 125.47C594.333 127.23 592.243 129.65 590.703 132.73C589.236 135.737 588.503 139.183 588.503 143.07C588.503 146.957 589.236 150.44 590.703 153.52C592.243 156.527 594.333 158.91 596.973 160.67C599.613 162.43 602.656 163.31 606.103 163.31ZM677.14 173.1C671.2 173.1 665.92 171.853 661.3 169.36C656.753 166.793 653.16 163.31 650.52 158.91C647.953 154.51 646.67 149.45 646.67 143.73C646.67 139.183 647.403 135.04 648.87 131.3C650.336 127.56 652.353 124.333 654.92 121.62C657.56 118.833 660.676 116.707 664.27 115.24C667.936 113.7 671.896 112.93 676.15 112.93C679.89 112.93 683.373 113.663 686.6 115.13C689.826 116.523 692.613 118.467 694.96 120.96C697.38 123.453 699.213 126.423 700.46 129.87C701.78 133.243 702.403 136.947 702.33 140.98L702.22 145.82H655.03L652.5 136.8H692.43L690.78 138.67V136.03C690.56 133.61 689.753 131.447 688.36 129.54C686.966 127.633 685.206 126.13 683.08 125.03C680.953 123.93 678.643 123.38 676.15 123.38C672.19 123.38 668.853 124.15 666.14 125.69C663.426 127.157 661.373 129.357 659.98 132.29C658.586 135.15 657.89 138.707 657.89 142.96C657.89 146.993 658.733 150.513 660.42 153.52C662.106 156.453 664.49 158.727 667.57 160.34C670.65 161.953 674.206 162.76 678.24 162.76C681.1 162.76 683.74 162.283 686.16 161.33C688.653 160.377 691.33 158.653 694.19 156.16L699.91 164.19C698.15 165.95 695.986 167.49 693.42 168.81C690.926 170.13 688.25 171.193 685.39 172C682.603 172.733 679.853 173.1 677.14 173.1ZM714.643 172V114.25H725.973V126.13L723.993 127.45C724.726 124.883 726.156 122.537 728.283 120.41C730.409 118.21 732.939 116.45 735.873 115.13C738.806 113.737 741.813 113.04 744.893 113.04C749.293 113.04 752.959 113.92 755.893 115.68C758.826 117.367 761.026 119.97 762.493 123.49C763.959 127.01 764.693 131.447 764.693 136.8V172H753.363V137.57C753.363 134.27 752.923 131.557 752.043 129.43C751.163 127.23 749.806 125.653 747.973 124.7C746.139 123.673 743.866 123.233 741.153 123.38C738.953 123.38 736.936 123.747 735.103 124.48C733.269 125.14 731.656 126.093 730.263 127.34C728.943 128.587 727.879 130.053 727.073 131.74C726.339 133.353 725.973 135.113 725.973 137.02V172H720.363C719.409 172 718.456 172 717.503 172C716.549 172 715.596 172 714.643 172ZM787.213 172V99.51H798.543V172H787.213ZM775.223 125.25V114.25H811.963V125.25H775.223ZM847.939 172L877.749 95H889.849L919.439 172H906.789L889.189 125.58C888.969 125.067 888.529 123.82 887.869 121.84C887.283 119.86 886.586 117.66 885.779 115.24C884.973 112.82 884.239 110.62 883.579 108.64C882.919 106.587 882.479 105.267 882.259 104.68L884.789 104.57C884.349 105.817 883.799 107.393 883.139 109.3C882.553 111.207 881.893 113.223 881.159 115.35C880.499 117.477 879.839 119.493 879.179 121.4C878.519 123.233 877.969 124.773 877.529 126.02L860.039 172H847.939ZM861.139 152.86L865.539 141.42H900.519L905.579 152.86H861.139ZM930.131 172V161H942.561V106H930.131V95H966.871V106H954.441V161H966.871V172H930.131Z" fill="black"/>
<g filter="url(#filter0_d_0_1)">
<rect x="36" y="36" width="193" height="193" rx="96.5" fill="#10002A"/>
<rect x="40.5" y="40.5" width="184" height="184" rx="92" stroke="#6E00FF" stroke-width="9"/>
</g>
<path d="M84 107.976V156.902C84 157.467 84.4705 157.912 85.0252 157.876C96.4498 157.132 108.67 153.055 117.299 145.009V135.367H104.727C103.176 135.367 101.843 134.154 101.771 132.58C101.695 130.9 103.012 129.516 104.646 129.516H117.299V119.871C108.718 111.868 96.4983 107.743 85.025 107.002C84.4703 106.966 84 107.411 84 107.976ZM148.701 119.873V129.516H161.272C162.821 129.516 164.155 130.725 164.229 132.298C164.308 133.978 162.989 135.367 161.354 135.367H148.701V145.011C157.282 153.014 169.502 157.139 180.975 157.88C181.53 157.916 182 157.471 182 156.906V107.98C182 107.415 181.53 106.971 180.975 107.006C169.521 107.751 157.315 111.837 148.701 119.873ZM123.055 121.151V143.731H142.945V121.151H123.055Z" fill="white"/>
<circle cx="132.5" cy="132.5" r="86.5" stroke="white" stroke-width="2"/>
<defs>
<filter id="filter0_d_0_1" x="0" y="0" width="265" height="265" filterUnits="userSpaceOnUse" color-interpolation-filters="sRGB">
<feFlood flood-opacity="0" result="BackgroundImageFix"/>
<feColorMatrix in="SourceAlpha" type="matrix" values="0 0 0 0 0 0 0 0 0 0 0 0 0 0 0 0 0 0 127 0" result="hardAlpha"/>
<feOffset/>
<feGaussianBlur stdDeviation="18"/>
<feComposite in2="hardAlpha" operator="out"/>
<feColorMatrix type="matrix" values="0 0 0 0 0.233333 0 0 0 0 0 0 0 0 0 1 0 0 0 1 0"/>
<feBlend mode="normal" in2="BackgroundImageFix" result="effect1_dropShadow_0_1"/>
<feBlend mode="normal" in="SourceGraphic" in2="effect1_dropShadow_0_1" result="shape"/>
</filter>
</defs>
</svg>
